<svg width="24" height="24" viewBox="0 0 24 24" fill="none" xmlns="http://www.w3.org/2000/svg">
<path fill-rule="evenodd" clip-rule="evenodd" d="M3.88623 8.71859C5.18371 5.51328 8.32661 3.25 11.9999 3.25C16.3508 3.25 19.9599 6.42553 20.6362 10.5853L21.5499 9.9C21.8813 9.65147 22.3514 9.71863 22.5999 10.05C22.8484 10.3814 22.7813 10.8515 22.4499 11.1L21.4388 11.8584C20.6055 12.4833 19.4906 12.5839 18.5589 12.118L17.6645 11.6708C17.294 11.4856 17.1439 11.0351 17.3291 10.6646C17.5143 10.2941 17.9648 10.1439 18.3353 10.3292L19.1393 10.7311C18.5393 7.33207 15.5711 4.75 11.9999 4.75C8.95848 4.75 6.35272 6.62306 5.27664 9.28141C5.12122 9.66536 4.68398 9.85062 4.30003 9.6952C3.91608 9.53978 3.73081 9.10254 3.88623 8.71859ZM3.32872 13.1794C3.29531 13.1926 3.26229 13.2073 3.22976 13.2236L2.33533 13.6708C1.96485 13.8561 1.51434 13.7059 1.3291 13.3354C1.14386 12.9649 1.29403 12.5144 1.66451 12.3292L2.55894 11.882C3.49059 11.4161 4.60548 11.5167 5.43877 12.1416L6.44992 12.9C6.78129 13.1485 6.84845 13.6186 6.59992 13.95C6.35139 14.2814 5.88129 14.3485 5.54992 14.1L4.93611 13.6396C5.67922 16.8539 8.55975 19.25 11.9999 19.25C15.0414 19.25 17.6471 17.3769 18.7232 14.7186C18.8786 14.3346 19.3159 14.1494 19.6998 14.3048C20.0838 14.4602 20.269 14.8975 20.1136 15.2814C18.8161 18.4867 15.6732 20.75 11.9999 20.75C7.56738 20.75 3.90465 17.4541 3.32872 13.1794Z" fill="#28303F"/>
<path d="M10.2813 14L9.25931 12.145H8.97231V14H7.77531V9.086H9.78431C10.1716 9.086 10.5006 9.15367 10.7713 9.289C11.0466 9.42433 11.252 9.611 11.3873 9.849C11.5226 10.0823 11.5903 10.3437 11.5903 10.633C11.5903 10.9597 11.497 11.2513 11.3103 11.508C11.1283 11.7647 10.8576 11.9467 10.4983 12.054L11.6323 14H10.2813ZM8.97231 11.298H9.71431C9.93364 11.298 10.097 11.2443 10.2043 11.137C10.3163 11.0297 10.3723 10.878 10.3723 10.682C10.3723 10.4953 10.3163 10.3483 10.2043 10.241C10.097 10.1337 9.93364 10.08 9.71431 10.08H8.97231V11.298ZM13.5387 10.647C13.6554 10.465 13.8164 10.318 14.0217 10.206C14.227 10.094 14.4674 10.038 14.7427 10.038C15.0647 10.038 15.3564 10.1197 15.6177 10.283C15.879 10.4463 16.0844 10.6797 16.2337 10.983C16.3877 11.2863 16.4647 11.6387 16.4647 12.04C16.4647 12.4413 16.3877 12.796 16.2337 13.104C16.0844 13.4073 15.879 13.643 15.6177 13.811C15.3564 13.9743 15.0647 14.056 14.7427 14.056C14.472 14.056 14.2317 14 14.0217 13.888C13.8164 13.776 13.6554 13.6313 13.5387 13.454V15.862H12.3417V10.094H13.5387V10.647ZM15.2467 12.04C15.2467 11.7413 15.1627 11.508 14.9947 11.34C14.8314 11.1673 14.6284 11.081 14.3857 11.081C14.1477 11.081 13.9447 11.1673 13.7767 11.34C13.6134 11.5127 13.5317 11.7483 13.5317 12.047C13.5317 12.3457 13.6134 12.5813 13.7767 12.754C13.9447 12.9267 14.1477 13.013 14.3857 13.013C14.6237 13.013 14.8267 12.9267 14.9947 12.754C15.1627 12.5767 15.2467 12.3387 15.2467 12.04Z" fill="#28303F" fill-opacity="0.5"/>
</svg>
