<svg width="88" height="24" viewBox="0 0 88 24" fill="none" xmlns="http://www.w3.org/2000/svg">
<g clip-path="url(#clip0_2790_3287)">
<path d="M12.1193 6.47119C11.8657 6.47119 11.6168 6.48818 11.3724 6.5215V9.8048C11.607 9.72509 11.8579 9.68196 12.1193 9.68196C13.398 9.68196 14.4342 10.7189 14.4342 11.9969C14.4342 13.2756 13.398 14.3126 12.1193 14.3126C11.8579 14.3126 11.607 14.2694 11.3724 14.1897V17.473C11.6168 17.5063 11.8657 17.5233 12.1193 17.5233C15.1706 17.5233 17.645 15.0489 17.645 11.9969C17.645 8.94559 15.1706 6.47119 12.1193 6.47119Z" fill="#28303F" fill-opacity="0.5"/>
<path d="M10.4938 10.1528V13.8118H12.8271V17.9556H10.4938V23.4003H6.34937V6.0083H12.8271V10.1528H10.4938Z" fill="#28303F"/>
<path opacity="0.4" d="M18 2H6C3.79086 2 2 3.79086 2 6V18C2 20.2091 3.79086 22 6 22H18C20.2091 22 22 20.2091 22 18V6C22 3.79086 20.2091 2 18 2Z" fill="#28303F"/>
</g>
<path d="M29.652 7.636V8.524H26.016V11.344H28.968V12.232H26.016V16H24.924V7.636H29.652ZM36.9709 12.46C36.9709 12.668 36.9589 12.888 36.9349 13.12H31.6789C31.7189 13.768 31.9389 14.276 32.3389 14.644C32.7469 15.004 33.2389 15.184 33.8149 15.184C34.2869 15.184 34.6789 15.076 34.9909 14.86C35.3109 14.636 35.5349 14.34 35.6629 13.972H36.8389C36.6629 14.604 36.3109 15.12 35.7829 15.52C35.2549 15.912 34.5989 16.108 33.8149 16.108C33.1909 16.108 32.6309 15.968 32.1349 15.688C31.6469 15.408 31.2629 15.012 30.9829 14.5C30.7029 13.98 30.5629 13.38 30.5629 12.7C30.5629 12.02 30.6989 11.424 30.9709 10.912C31.2429 10.4 31.6229 10.008 32.1109 9.736C32.6069 9.456 33.1749 9.316 33.8149 9.316C34.4389 9.316 34.9909 9.452 35.4709 9.724C35.9509 9.996 36.3189 10.372 36.5749 10.852C36.8389 11.324 36.9709 11.86 36.9709 12.46ZM35.8429 12.232C35.8429 11.816 35.7509 11.46 35.5669 11.164C35.3829 10.86 35.1309 10.632 34.8109 10.48C34.4989 10.32 34.1509 10.24 33.7669 10.24C33.2149 10.24 32.7429 10.416 32.3509 10.768C31.9669 11.12 31.7469 11.608 31.6909 12.232H35.8429ZM39.5043 10.648C39.7283 10.256 40.0563 9.936 40.4883 9.688C40.9203 9.44 41.4123 9.316 41.9643 9.316C42.5563 9.316 43.0883 9.456 43.5603 9.736C44.0323 10.016 44.4043 10.412 44.6763 10.924C44.9483 11.428 45.0843 12.016 45.0843 12.688C45.0843 13.352 44.9483 13.944 44.6763 14.464C44.4043 14.984 44.0283 15.388 43.5483 15.676C43.0763 15.964 42.5483 16.108 41.9643 16.108C41.3963 16.108 40.8963 15.984 40.4643 15.736C40.0403 15.488 39.7203 15.172 39.5043 14.788V16H38.4123V7.12H39.5043V10.648ZM43.9683 12.688C43.9683 12.192 43.8683 11.76 43.6683 11.392C43.4683 11.024 43.1963 10.744 42.8523 10.552C42.5163 10.36 42.1443 10.264 41.7363 10.264C41.3363 10.264 40.9643 10.364 40.6203 10.564C40.2843 10.756 40.0123 11.04 39.8043 11.416C39.6043 11.784 39.5043 12.212 39.5043 12.7C39.5043 13.196 39.6043 13.632 39.8043 14.008C40.0123 14.376 40.2843 14.66 40.6203 14.86C40.9643 15.052 41.3363 15.148 41.7363 15.148C42.1443 15.148 42.5163 15.052 42.8523 14.86C43.1963 14.66 43.4683 14.376 43.6683 14.008C43.8683 13.632 43.9683 13.192 43.9683 12.688ZM47.6137 10.636C47.8297 10.26 48.1497 9.948 48.5737 9.7C49.0057 9.444 49.5057 9.316 50.0737 9.316C50.6577 9.316 51.1857 9.456 51.6577 9.736C52.1377 10.016 52.5137 10.412 52.7857 10.924C53.0577 11.428 53.1937 12.016 53.1937 12.688C53.1937 13.352 53.0577 13.944 52.7857 14.464C52.5137 14.984 52.1377 15.388 51.6577 15.676C51.1857 15.964 50.6577 16.108 50.0737 16.108C49.5137 16.108 49.0177 15.984 48.5857 15.736C48.1617 15.48 47.8377 15.164 47.6137 14.788V19.12H46.5217V9.424H47.6137V10.636ZM52.0777 12.688C52.0777 12.192 51.9777 11.76 51.7777 11.392C51.5777 11.024 51.3057 10.744 50.9617 10.552C50.6257 10.36 50.2537 10.264 49.8457 10.264C49.4457 10.264 49.0737 10.364 48.7297 10.564C48.3937 10.756 48.1217 11.04 47.9137 11.416C47.7137 11.784 47.6137 12.212 47.6137 12.7C47.6137 13.196 47.7137 13.632 47.9137 14.008C48.1217 14.376 48.3937 14.66 48.7297 14.86C49.0737 15.052 49.4457 15.148 49.8457 15.148C50.2537 15.148 50.6257 15.052 50.9617 14.86C51.3057 14.66 51.5777 14.376 51.7777 14.008C51.9777 13.632 52.0777 13.192 52.0777 12.688ZM55.723 10.492C55.915 10.116 56.187 9.824 56.539 9.616C56.899 9.408 57.335 9.304 57.847 9.304V10.432H57.559C56.335 10.432 55.723 11.096 55.723 12.424V16H54.631V9.424H55.723V10.492ZM61.9756 16.108C61.3596 16.108 60.7996 15.968 60.2956 15.688C59.7996 15.408 59.4076 15.012 59.1196 14.5C58.8396 13.98 58.6996 13.38 58.6996 12.7C58.6996 12.028 58.8436 11.436 59.1316 10.924C59.4276 10.404 59.8276 10.008 60.3316 9.736C60.8356 9.456 61.3996 9.316 62.0236 9.316C62.6476 9.316 63.2116 9.456 63.7156 9.736C64.2196 10.008 64.6156 10.4 64.9036 10.912C65.1996 11.424 65.3476 12.02 65.3476 12.7C65.3476 13.38 65.1956 13.98 64.8916 14.5C64.5956 15.012 64.1916 15.408 63.6796 15.688C63.1676 15.968 62.5996 16.108 61.9756 16.108ZM61.9756 15.148C62.3676 15.148 62.7356 15.056 63.0796 14.872C63.4236 14.688 63.6996 14.412 63.9076 14.044C64.1236 13.676 64.2316 13.228 64.2316 12.7C64.2316 12.172 64.1276 11.724 63.9196 11.356C63.7116 10.988 63.4396 10.716 63.1036 10.54C62.7676 10.356 62.4036 10.264 62.0116 10.264C61.6116 10.264 61.2436 10.356 60.9076 10.54C60.5796 10.716 60.3156 10.988 60.1156 11.356C59.9156 11.724 59.8156 12.172 59.8156 12.7C59.8156 13.236 59.9116 13.688 60.1036 14.056C60.3036 14.424 60.5676 14.7 60.8956 14.884C61.2236 15.06 61.5836 15.148 61.9756 15.148ZM67.3714 8.356C67.1634 8.356 66.9874 8.284 66.8434 8.14C66.7074 7.996 66.6394 7.82 66.6394 7.612C66.6394 7.404 66.7074 7.228 66.8434 7.084C66.9874 6.94 67.1634 6.868 67.3714 6.868C67.5794 6.868 67.7514 6.94 67.8874 7.084C68.0314 7.228 68.1034 7.404 68.1034 7.612C68.1034 7.82 68.0314 7.996 67.8874 8.14C67.7514 8.284 67.5794 8.356 67.3714 8.356ZM67.9114 17.428C67.9114 18.012 67.7634 18.44 67.4674 18.712C67.1714 18.984 66.7394 19.12 66.1714 19.12H65.5354V18.196H65.9914C66.2954 18.196 66.5074 18.136 66.6274 18.016C66.7554 17.896 66.8194 17.692 66.8194 17.404V9.424H67.9114V17.428ZM75.7599 12.46C75.7599 12.668 75.7479 12.888 75.7239 13.12H70.4679C70.5079 13.768 70.7279 14.276 71.1279 14.644C71.5359 15.004 72.0279 15.184 72.6039 15.184C73.0759 15.184 73.4679 15.076 73.7799 14.86C74.0999 14.636 74.3239 14.34 74.4519 13.972H75.6279C75.4519 14.604 75.0999 15.12 74.5719 15.52C74.0439 15.912 73.3879 16.108 72.6039 16.108C71.9799 16.108 71.4199 15.968 70.9239 15.688C70.4359 15.408 70.0519 15.012 69.7719 14.5C69.4919 13.98 69.3519 13.38 69.3519 12.7C69.3519 12.02 69.4879 11.424 69.7599 10.912C70.0319 10.4 70.4119 10.008 70.8999 9.736C71.3959 9.456 71.9639 9.316 72.6039 9.316C73.2279 9.316 73.7799 9.452 74.2599 9.724C74.7399 9.996 75.1079 10.372 75.3639 10.852C75.6279 11.324 75.7599 11.86 75.7599 12.46ZM74.6319 12.232C74.6319 11.816 74.5399 11.46 74.3559 11.164C74.1719 10.86 73.9199 10.632 73.5999 10.48C73.2879 10.32 72.9399 10.24 72.5559 10.24C72.0039 10.24 71.5319 10.416 71.1399 10.768C70.7559 11.12 70.5359 11.608 70.4799 12.232H74.6319ZM76.7933 12.7C76.7933 12.02 76.9293 11.428 77.2013 10.924C77.4733 10.412 77.8493 10.016 78.3293 9.736C78.8173 9.456 79.3733 9.316 79.9973 9.316C80.8053 9.316 81.4693 9.512 81.9893 9.904C82.5173 10.296 82.8653 10.84 83.0333 11.536H81.8573C81.7453 11.136 81.5253 10.82 81.1973 10.588C80.8773 10.356 80.4773 10.24 79.9973 10.24C79.3733 10.24 78.8693 10.456 78.4853 10.888C78.1013 11.312 77.9093 11.916 77.9093 12.7C77.9093 13.492 78.1013 14.104 78.4853 14.536C78.8693 14.968 79.3733 15.184 79.9973 15.184C80.4773 15.184 80.8773 15.072 81.1973 14.848C81.5173 14.624 81.7373 14.304 81.8573 13.888H83.0333C82.8573 14.56 82.5053 15.1 81.9773 15.508C81.4493 15.908 80.7893 16.108 79.9973 16.108C79.3733 16.108 78.8173 15.968 78.3293 15.688C77.8493 15.408 77.4733 15.012 77.2013 14.5C76.9293 13.988 76.7933 13.388 76.7933 12.7ZM85.8224 10.324V14.2C85.8224 14.52 85.8904 14.748 86.0264 14.884C86.1624 15.012 86.3984 15.076 86.7344 15.076H87.5384V16H86.5544C85.9464 16 85.4904 15.86 85.1864 15.58C84.8824 15.3 84.7304 14.84 84.7304 14.2V10.324H83.8784V9.424H84.7304V7.768H85.8224V9.424H87.5384V10.324H85.8224Z" fill="black"/>
<defs>
<clipPath id="clip0_2790_3287">
<rect width="20" height="20" fill="white" transform="translate(2 2)"/>
</clipPath>
</defs>
</svg>
