<svg width="354" height="485" viewBox="0 0 354 485" fill="none" xmlns="http://www.w3.org/2000/svg">
<g clip-path="url(#clip0_1739_3294)">
<path fill-rule="evenodd" clip-rule="evenodd" d="M96.178 178.515V199.848H156.561V338.997C156.561 358.534 170.508 367.445 184.169 367.445C197.831 367.445 206.496 362.904 206.496 362.904C206.496 362.904 198.165 356.172 198.129 326.252C198.094 297.233 198.125 205.729 198.129 192.823C198.132 179.917 183.058 156.678 158.255 156.678L119.92 156.678C107.356 156.678 96.178 166.892 96.178 178.515ZM184.858 156.678C184.066 156.678 183.429 157.314 183.429 158.105C183.429 158.895 184.223 159.481 184.858 159.954C187.488 161.913 195.684 167.713 199.598 175.647C203.512 183.582 203.605 190.783 206.149 194.943C208.692 199.102 212.842 199.848 217.231 199.848H248.79C255.763 199.848 258.503 195.17 258.503 189.622V156.678H184.858Z" fill="black"/>
<path opacity="0.5" fill-rule="evenodd" clip-rule="evenodd" d="M96.178 178.515V199.848H156.561V338.998C156.561 358.534 170.508 367.445 184.169 367.445C197.831 367.445 206.496 362.904 206.496 362.904C206.496 362.904 198.165 356.172 198.129 326.252C198.094 297.233 198.125 205.729 198.129 192.823C198.132 179.917 183.058 156.678 158.255 156.678L119.92 156.678C107.356 156.678 96.178 166.892 96.178 178.515ZM184.858 156.678C184.066 156.678 183.429 157.314 183.429 158.105C183.429 158.895 184.223 159.481 184.858 159.954C187.488 161.913 195.684 167.713 199.598 175.647C203.512 183.582 203.605 190.783 206.149 194.943C208.692 199.102 212.842 199.848 217.231 199.848H248.79C255.763 199.848 258.503 195.17 258.503 189.622V156.678H184.858ZM154.968 1.00053C153.558 1.02393 151.746 1.65309 151.728 4.06398C151.711 6.47486 154.212 11.6095 154.074 23.3927C153.93 35.6354 151.119 43.9617 133.993 64.9068L66.1072 147.931C26.8244 195.974 0.123305 217.882 0.000418249 270.29C-0.122469 322.698 26.8452 348.307 66.1355 379.873C105.426 411.438 156.324 452.42 195.92 484.52C196.819 485.249 197.938 486.023 199.348 485.999C200.758 485.976 202.57 485.347 202.588 482.936C202.605 480.525 199.903 478.157 200.041 466.374C200.185 454.132 201.377 446.769 218.609 425.91L289.889 339.627C329.414 291.783 353.877 270.388 354 218.608C354.122 166.827 326.927 138.552 292.112 111.599C246.315 76.1449 193.083 31.4413 158.396 2.47975C157.508 1.73826 156.378 0.977105 154.968 1.00053Z" fill="black"/>
</g>
<defs>
<clipPath id="clip0_1739_3294">
<rect width="354" height="485" fill="white"/>
</clipPath>
</defs>
</svg>
